<svg height="480pt" viewBox="0 0 480 480" width="480pt" xmlns="http://www.w3.org/2000/svg"><path d="m40 8h400c17.671875 0 32 14.328125 32 32v192c0 17.671875-14.328125 32-32 32h-400c-17.671875 0-32-14.328125-32-32v-192c0-17.671875 14.328125-32 32-32zm0 0" fill="#d6d6d4"/><path d="m440 8h-54l-256 256h310c17.671875 0 32-14.328125 32-32v-192c0-17.671875-14.328125-32-32-32zm0 0" fill="#c7c7c5"/><path d="m48 40h192c4.417969 0 8 3.582031 8 8v144c0 4.417969-3.582031 8-8 8h-192c-4.417969 0-8-3.582031-8-8v-144c0-4.417969 3.582031-8 8-8zm0 0" fill="#5f9548"/><path d="m43.097656 40h201.804688c1.710937 0 3.097656 1.386719 3.097656 3.097656v17.804688c0 1.710937-1.386719 3.097656-3.097656 3.097656h-201.804688c-1.710937 0-3.097656-1.386719-3.097656-3.097656v-17.804688c0-1.710937 1.386719-3.097656 3.097656-3.097656zm0 0" fill="#568741"/><path d="m440 120c0 8.835938-7.164062 16-16 16s-16-7.164062-16-16 7.164062-16 16-16 16 7.164062 16 16zm0 0" fill="#ebebe9"/><path d="m376 120c0 8.835938-7.164062 16-16 16s-16-7.164062-16-16 7.164062-16 16-16 16 7.164062 16 16zm0 0" fill="#ebebe9"/><path d="m312 120c0 8.835938-7.164062 16-16 16s-16-7.164062-16-16 7.164062-16 16-16 16 7.164062 16 16zm0 0" fill="#ebebe9"/><path d="m440 184c0 8.835938-7.164062 16-16 16s-16-7.164062-16-16 7.164062-16 16-16 16 7.164062 16 16zm0 0" fill="#ebebe9"/><path d="m376 184c0 8.835938-7.164062 16-16 16s-16-7.164062-16-16 7.164062-16 16-16 16 7.164062 16 16zm0 0" fill="#ebebe9"/><path d="m312 184c0 8.835938-7.164062 16-16 16s-16-7.164062-16-16 7.164062-16 16-16 16 7.164062 16 16zm0 0" fill="#ebebe9"/><g fill="#a3a3a1"><path d="m32 224h32v16h-32zm0 0"/><path d="m80 224h32v16h-32zm0 0"/><path d="m128 224h32v16h-32zm0 0"/><path d="m176 224h32v16h-32zm0 0"/><path d="m224 224h32v16h-32zm0 0"/><path d="m352 224h16v16h-16zm0 0"/><path d="m416 224h16v16h-16zm0 0"/><path d="m40 264h48v32h-48zm0 0"/><path d="m392 264h48v32h-48zm0 0"/><path d="m280 64h32v16h-32zm0 0"/><path d="m344 64h32v16h-32zm0 0"/><path d="m408 64h32v16h-32zm0 0"/><path d="m280 32h32v16h-32zm0 0"/><path d="m344 32h32v16h-32zm0 0"/><path d="m408 32h32v16h-32zm0 0"/></g><path d="m64 112h160v16h-160zm0 0" fill="#43752e"/><path d="m176.6875 176h-.992188c-12.871093.066406-24.257812-8.332031-28-20.648438l-22.765624-74c-1.738282-5.648437-7.003907-9.464843-12.910157-9.355468-5.910156.109375-11.03125 4.117187-12.554687 9.828125l-10.777344 40.246093-15.457031-4.140624 10.785156-40.25c3.375-12.597657 14.679687-21.4375 27.714844-21.675782 13.039062-.238281 24.660156 8.179688 28.492187 20.644532l22.769532 74c1.695312 5.585937 6.867187 9.390624 12.703124 9.351562h.992188c5.707031.007812 10.769531-3.648438 12.558594-9.0625l11.203125-33.464844 15.199219 5.054688-11.214844 33.472656c-3.96875 11.953125-15.152344 20.011719-27.746094 20zm0 0" fill="#88c25e"/><path d="m64 424-17.457031 8h-46.542969v16h49.230469l14.769531 8h304v-32zm0 0" fill="#374559"/><path d="m112 400h16v80h-16zm0 0" fill="#3d4d63"/><path d="m144 400h16v80h-16zm0 0" fill="#3d4d63"/><path d="m296 248c-8.835938 0-16-7.164062-16-16s7.164062-16 16-16 16 7.164062 16 16-7.164062 16-16 16zm0-16" fill="#2e3e51"/><path d="m436 448h-68v-16h68c15.464844 0 28-12.535156 28-28s-12.535156-28-28-28h-104c-24.289062-.03125-43.96875-19.710938-44-44v-100h16v100c0 15.464844 12.535156 28 28 28h104c24.300781 0 44 19.699219 44 44s-19.699219 44-44 44zm0 0" fill="#2e3e51"/><path d="m440 0h-400c-22.082031.0273438-39.9726562 17.917969-40 40v192c.0234375 19 13.386719 35.371094 32 39.199219v24.800781c0 4.417969 3.582031 8 8 8h48c4.417969 0 8-3.582031 8-8v-24h192v60c.03125 24.289062 19.710938 43.96875 44 44h104c15.464844 0 28 12.535156 28 28s-12.535156 28-28 28h-60v-8c0-4.417969-3.582031-8-8-8h-168c-4.417969 0-8-3.582031-8-8s3.582031-8 8-8h16c13.253906 0 24-10.746094 24-24s-10.746094-24-24-24h-72v-16h8c.539062 0 1.074219-.054688 1.601562-.160156l40-8-3.203124-15.679688-39.199219 7.839844h-47.199219c-1.285156 0-2.554688.308594-3.695312.902344l-32 16.664062c-2.6875 1.402344-4.351563 4.199219-4.300782 7.226563.046875 3.027343 1.804688 5.765625 4.53125 7.078125l32 15.335937c1.082032.523438 2.265625.792969 3.464844.792969h112c4.417969 0 8 3.582031 8 8s-3.582031 8-8 8h-16c-13.253906 0-24 10.746094-24 24 .027344 2.730469.523438 5.4375 1.472656 8h-17.472656v-16h-16v16h-16v-16h-16v16h-48c-1.152344 0-2.289062.25-3.335938.726562l-32 14.664063c-.332031.179687-.652343.382813-.953124.609375h-27.710938v16h32v-.238281l28.183594 15.269531c1.171875.636719 2.484375.96875 3.816406.96875h48v16h16v-16h16v16h16v-16h208c4.417969 0 8-3.582031 8-8v-8h60c24.300781 0 44-19.699219 44-44s-19.699219-44-44-44h-104c-15.464844 0-28-12.535156-28-28v-60h80v24c0 4.417969 3.582031 8 8 8h48c4.417969 0 8-3.582031 8-8v-24.800781c18.613281-3.828125 31.976562-20.199219 32-39.199219v-192c-.027344-22.082031-17.917969-39.9726562-40-40zm-312 352h-22.175781l-15.9375-7.632812 16.074219-8.367188h22.039062zm-61.96875 96-16.136719-8.734375 15.847657-7.265625h46.257812v16zm61.96875 0v-16h16v16zm232 0h-200v-16h200zm-280-160h-32v-16h32zm352 0h-32v-16h32zm32-56c0 13.253906-10.746094 24-24 24h-136v-10.222656c6.273438-3.621094 9.328125-11.003906 7.453125-18-1.871094-6.992188-8.210937-11.859375-15.453125-11.859375s-13.582031 4.867187-15.453125 11.859375c-1.875 6.996094 1.179687 14.378906 7.453125 18v10.222656h-248c-13.253906 0-24-10.746094-24-24v-192c0-13.253906 10.746094-24 24-24h400c13.253906 0 24 10.746094 24 24zm0 0"/><path d="m240 32h-192c-8.835938 0-16 7.164062-16 16v144c0 8.835938 7.164062 16 16 16h192c8.835938 0 16-7.164062 16-16v-144c0-8.835938-7.164062-16-16-16zm-192 160v-144h192v144zm0 0"/><path d="m424 96c-13.253906 0-24 10.746094-24 24s10.746094 24 24 24 24-10.746094 24-24-10.746094-24-24-24zm0 32c-4.417969 0-8-3.582031-8-8s3.582031-8 8-8 8 3.582031 8 8-3.582031 8-8 8zm0 0"/><path d="m360 96c-13.253906 0-24 10.746094-24 24s10.746094 24 24 24 24-10.746094 24-24-10.746094-24-24-24zm0 32c-4.417969 0-8-3.582031-8-8s3.582031-8 8-8 8 3.582031 8 8-3.582031 8-8 8zm0 0"/><path d="m296 96c-13.253906 0-24 10.746094-24 24s10.746094 24 24 24 24-10.746094 24-24-10.746094-24-24-24zm0 32c-4.417969 0-8-3.582031-8-8s3.582031-8 8-8 8 3.582031 8 8-3.582031 8-8 8zm0 0"/><path d="m424 160c-13.253906 0-24 10.746094-24 24s10.746094 24 24 24 24-10.746094 24-24-10.746094-24-24-24zm0 32c-4.417969 0-8-3.582031-8-8s3.582031-8 8-8 8 3.582031 8 8-3.582031 8-8 8zm0 0"/><path d="m360 160c-13.253906 0-24 10.746094-24 24s10.746094 24 24 24 24-10.746094 24-24-10.746094-24-24-24zm0 32c-4.417969 0-8-3.582031-8-8s3.582031-8 8-8 8 3.582031 8 8-3.582031 8-8 8zm0 0"/><path d="m296 160c-13.253906 0-24 10.746094-24 24s10.746094 24 24 24 24-10.746094 24-24-10.746094-24-24-24zm0 32c-4.417969 0-8-3.582031-8-8s3.582031-8 8-8 8 3.582031 8 8-3.582031 8-8 8zm0 0"/><path d="m32 224h32v16h-32zm0 0"/><path d="m80 224h32v16h-32zm0 0"/><path d="m128 224h32v16h-32zm0 0"/><path d="m176 224h32v16h-32zm0 0"/><path d="m224 224h32v16h-32zm0 0"/><path d="m352 224h16v16h-16zm0 0"/><path d="m416 224h16v16h-16zm0 0"/><path d="m280 64h32v16h-32zm0 0"/><path d="m344 64h32v16h-32zm0 0"/><path d="m408 64h32v16h-32zm0 0"/><path d="m280 32h32v16h-32zm0 0"/><path d="m344 32h32v16h-32zm0 0"/><path d="m408 32h32v16h-32zm0 0"/><path d="m140.265625 76.648438c-3.835937-12.464844-15.457031-20.882813-28.496094-20.644532-13.035156.238282-24.339843 9.078125-27.714843 21.675782l-9.191407 34.320312h-10.863281v16h75.320312l8.414063 27.351562c3.738281 12.304688 15.105469 20.699219 27.960937 20.648438h.992188c12.59375.011719 23.777344-8.046875 27.746094-20l9.328125-28h10.238281v-16h-72.855469zm-48.839844 35.351562 8.078125-30.175781c1.523438-5.710938 6.644532-9.71875 12.554688-9.828125 5.90625-.109375 11.175781 3.707031 12.910156 9.355468l9.429688 30.648438zm105.476563 16-7.65625 22.9375c-1.789063 5.414062-6.851563 9.070312-12.558594 9.0625h-.992188c-5.824218.023438-10.972656-3.78125-12.664062-9.351562l-6.96875-22.648438zm0 0"/></svg>